<svg xmlns="http://www.w3.org/2000/svg" viewBox="0 0 591.2 764.9">
    <path d="M68.7 110.4l257.7 401.3H404V0h-68.7v403.5L77.6 0H0v511.7h68.7z" />
    <path
        d="M389.5 594.1c-47.4 0-89.4 22.8-115.7 58-26.3-35.2-68.3-58-115.7-58-34.3 0-74.5 16.1-90.5 37.8v-33.6H0v166.6h67.7v-26.4c-2-47.6 38.6-82.8 86.2-82.8s82.8 35.2 82.8 82.8v26.4h65.8v-26.4c0-47.6 35.2-82.8 82.8-82.8s82.8 35.2 82.8 82.8v26.4h65.8v-26.4c0-79.8-64.6-144.4-144.4-144.4" />
    <path
        d="M480.3 237.8h62.4c0-29.2 20.9-53.5 48.5-58.8v-62.9c-62.2 5.7-110.9 58-110.9 121.7zm-11.4 151.7c0 67.5 54.7 122.3 122.3 122.3v-62.4c-33.1 0-59.9-26.8-59.9-59.9s26.8-59.9 59.9-59.9v-62.4c-67.6 0-122.3 54.8-122.3 122.3z" />
</svg>